<?xml version="1.0" encoding="UTF-8" standalone="no"?>
<!DOCTYPE svg PUBLIC "-//W3C//DTD SVG 1.1//EN"
 "http://www.w3.org/Graphics/SVG/1.1/DTD/svg11.dtd">
<!-- Generated by graphviz version 2.49.0 (20210829.0051)
 -->
<!-- Title: snakemake_dag Pages: 1 -->
<svg width="1649pt" height="2132pt"
 viewBox="0.00 0.00 1649.00 2132.00" xmlns="http://www.w3.org/2000/svg" xmlns:xlink="http://www.w3.org/1999/xlink">
<g id="graph0" class="graph" transform="scale(1 1) rotate(0) translate(4 2128)">
<title>snakemake_dag</title>
<polygon fill="white" stroke="transparent" points="-4,4 -4,-2128 1645,-2128 1645,4 -4,4"/>
<!-- 0 -->
<g id="node1" class="node">
<title>0</title>
<path fill="none" stroke="#9fd856" stroke-width="2" d="M939,-36C939,-36 909,-36 909,-36 903,-36 897,-30 897,-24 897,-24 897,-12 897,-12 897,-6 903,0 909,0 909,0 939,0 939,0 945,0 951,-6 951,-12 951,-12 951,-24 951,-24 951,-30 945,-36 939,-36"/>
<text text-anchor="middle" x="924" y="-15.5" font-family="sans" font-size="10.00">all</text>
</g>
<!-- 1 -->
<g id="node2" class="node">
<title>1</title>
<path fill="none" stroke="#566bd8" stroke-width="2" d="M409,-1908C409,-1908 375,-1908 375,-1908 369,-1908 363,-1902 363,-1896 363,-1896 363,-1884 363,-1884 363,-1878 369,-1872 375,-1872 375,-1872 409,-1872 409,-1872 415,-1872 421,-1878 421,-1884 421,-1884 421,-1896 421,-1896 421,-1902 415,-1908 409,-1908"/>
<text text-anchor="middle" x="392" y="-1887.5" font-family="sans" font-size="10.00">fastqc_1</text>
</g>
<!-- 1&#45;&gt;0 -->
<g id="edge21" class="edge">
<title>1&#45;&gt;0</title>
<path fill="none" stroke="grey" stroke-width="2" d="M362.86,-1884.9C272.01,-1871.31 0,-1824.18 0,-1747 0,-1747 0,-1747 0,-161 0,-116.06 10.12,-96.19 48,-72 119.39,-26.41 727.83,-20.03 886.36,-19.14"/>
<polygon fill="grey" stroke="grey" stroke-width="2" points="886.58,-22.64 896.56,-19.09 886.54,-15.64 886.58,-22.64"/>
</g>
<!-- 2 -->
<g id="node3" class="node">
<title>2</title>
<path fill="none" stroke="#d88556" stroke-width="2" d="M800,-2124C800,-2124 732,-2124 732,-2124 726,-2124 720,-2118 720,-2112 720,-2112 720,-2100 720,-2100 720,-2094 726,-2088 732,-2088 732,-2088 800,-2088 800,-2088 806,-2088 812,-2094 812,-2100 812,-2100 812,-2112 812,-2112 812,-2118 806,-2124 800,-2124"/>
<text text-anchor="middle" x="766" y="-2103.5" font-family="sans" font-size="10.00">irods_get_fastq</text>
</g>
<!-- 2&#45;&gt;1 -->
<g id="edge22" class="edge">
<title>2&#45;&gt;1</title>
<path fill="none" stroke="grey" stroke-width="2" d="M736.03,-2087.85C668.54,-2049.23 504.75,-1955.51 430.15,-1912.83"/>
<polygon fill="grey" stroke="grey" stroke-width="2" points="431.5,-1909.57 421.08,-1907.64 428.02,-1915.64 431.5,-1909.57"/>
</g>
<!-- 4 -->
<g id="node5" class="node">
<title>4</title>
<path fill="none" stroke="#56d0d8" stroke-width="2" d="M829,-2052C829,-2052 799,-2052 799,-2052 793,-2052 787,-2046 787,-2040 787,-2040 787,-2028 787,-2028 787,-2022 793,-2016 799,-2016 799,-2016 829,-2016 829,-2016 835,-2016 841,-2022 841,-2028 841,-2028 841,-2040 841,-2040 841,-2046 835,-2052 829,-2052"/>
<text text-anchor="middle" x="814" y="-2031.5" font-family="sans" font-size="10.00">fastp</text>
</g>
<!-- 2&#45;&gt;4 -->
<g id="edge24" class="edge">
<title>2&#45;&gt;4</title>
<path fill="none" stroke="grey" stroke-width="2" d="M777.87,-2087.7C783.5,-2079.47 790.35,-2069.48 796.57,-2060.42"/>
<polygon fill="grey" stroke="grey" stroke-width="2" points="799.5,-2062.33 802.27,-2052.1 793.73,-2058.37 799.5,-2062.33"/>
</g>
<!-- 3 -->
<g id="node4" class="node">
<title>3</title>
<path fill="none" stroke="#b6d856" stroke-width="2" d="M1354,-1836C1354,-1836 1320,-1836 1320,-1836 1314,-1836 1308,-1830 1308,-1824 1308,-1824 1308,-1812 1308,-1812 1308,-1806 1314,-1800 1320,-1800 1320,-1800 1354,-1800 1354,-1800 1360,-1800 1366,-1806 1366,-1812 1366,-1812 1366,-1824 1366,-1824 1366,-1830 1360,-1836 1354,-1836"/>
<text text-anchor="middle" x="1337" y="-1815.5" font-family="sans" font-size="10.00">fastqc_2</text>
</g>
<!-- 3&#45;&gt;0 -->
<g id="edge10" class="edge">
<title>3&#45;&gt;0</title>
<path fill="none" stroke="grey" stroke-width="2" d="M1366.15,-1816.64C1442.24,-1814 1641,-1795.58 1641,-1675 1641,-1675 1641,-1675 1641,-161 1641,-113.3 1622.18,-96.08 1581,-72 1527.43,-40.68 1092.99,-24.39 961.54,-20.14"/>
<polygon fill="grey" stroke="grey" stroke-width="2" points="961.3,-16.63 951.19,-19.81 961.08,-23.63 961.3,-16.63"/>
</g>
<!-- 4&#45;&gt;3 -->
<g id="edge23" class="edge">
<title>4&#45;&gt;3</title>
<path fill="none" stroke="grey" stroke-width="2" d="M841.02,-2021.95C927.46,-1986.58 1197.46,-1876.1 1298.41,-1834.79"/>
<polygon fill="grey" stroke="grey" stroke-width="2" points="1299.98,-1837.93 1307.91,-1830.9 1297.33,-1831.45 1299.98,-1837.93"/>
</g>
<!-- 8 -->
<g id="node9" class="node">
<title>8</title>
<path fill="none" stroke="#565bd8" stroke-width="2" d="M836,-1980C836,-1980 792,-1980 792,-1980 786,-1980 780,-1974 780,-1968 780,-1968 780,-1956 780,-1956 780,-1950 786,-1944 792,-1944 792,-1944 836,-1944 836,-1944 842,-1944 848,-1950 848,-1956 848,-1956 848,-1968 848,-1968 848,-1974 842,-1980 836,-1980"/>
<text text-anchor="middle" x="814" y="-1959.5" font-family="sans" font-size="10.00">bwa_mem</text>
</g>
<!-- 4&#45;&gt;8 -->
<g id="edge30" class="edge">
<title>4&#45;&gt;8</title>
<path fill="none" stroke="grey" stroke-width="2" d="M814,-2015.7C814,-2007.98 814,-1998.71 814,-1990.11"/>
<polygon fill="grey" stroke="grey" stroke-width="2" points="817.5,-1990.1 814,-1980.1 810.5,-1990.1 817.5,-1990.1"/>
</g>
<!-- 5 -->
<g id="node6" class="node">
<title>5</title>
<path fill="none" stroke="#56d8c9" stroke-width="2" d="M851,-1620C851,-1620 723,-1620 723,-1620 717,-1620 711,-1614 711,-1608 711,-1608 711,-1596 711,-1596 711,-1590 717,-1584 723,-1584 723,-1584 851,-1584 851,-1584 857,-1584 863,-1590 863,-1596 863,-1596 863,-1608 863,-1608 863,-1614 857,-1620 851,-1620"/>
<text text-anchor="middle" x="787" y="-1599.5" font-family="sans" font-size="10.00">reformat_bam_after_bqsr_1</text>
</g>
<!-- 5&#45;&gt;0 -->
<g id="edge14" class="edge">
<title>5&#45;&gt;0</title>
<path fill="none" stroke="grey" stroke-width="2" d="M863.03,-1595.73C1065.61,-1580.67 1603,-1533.68 1603,-1459 1603,-1459 1603,-1459 1603,-161 1603,-114.27 1586.91,-96.31 1547,-72 1496.95,-41.52 1088.1,-24.75 961.33,-20.25"/>
<polygon fill="grey" stroke="grey" stroke-width="2" points="961.44,-16.75 951.33,-19.9 961.2,-23.75 961.44,-16.75"/>
</g>
<!-- 11 -->
<g id="node12" class="node">
<title>11</title>
<path fill="none" stroke="#56a9d8" stroke-width="2" d="M747,-1548C747,-1548 643,-1548 643,-1548 637,-1548 631,-1542 631,-1536 631,-1536 631,-1524 631,-1524 631,-1518 637,-1512 643,-1512 643,-1512 747,-1512 747,-1512 753,-1512 759,-1518 759,-1524 759,-1524 759,-1536 759,-1536 759,-1542 753,-1548 747,-1548"/>
<text text-anchor="middle" x="695" y="-1527.5" font-family="sans" font-size="10.00">index_bam_after_recal</text>
</g>
<!-- 5&#45;&gt;11 -->
<g id="edge34" class="edge">
<title>5&#45;&gt;11</title>
<path fill="none" stroke="grey" stroke-width="2" d="M764.26,-1583.7C752.56,-1574.8 738.14,-1563.82 725.49,-1554.2"/>
<polygon fill="grey" stroke="grey" stroke-width="2" points="727.56,-1551.37 717.48,-1548.1 723.32,-1556.94 727.56,-1551.37"/>
</g>
<!-- 12 -->
<g id="node13" class="node">
<title>12</title>
<path fill="none" stroke="#8fd856" stroke-width="2" d="M1113.5,-1476C1113.5,-1476 1030.5,-1476 1030.5,-1476 1024.5,-1476 1018.5,-1470 1018.5,-1464 1018.5,-1464 1018.5,-1452 1018.5,-1452 1018.5,-1446 1024.5,-1440 1030.5,-1440 1030.5,-1440 1113.5,-1440 1113.5,-1440 1119.5,-1440 1125.5,-1446 1125.5,-1452 1125.5,-1452 1125.5,-1464 1125.5,-1464 1125.5,-1470 1119.5,-1476 1113.5,-1476"/>
<text text-anchor="middle" x="1072" y="-1455.5" font-family="sans" font-size="10.00">collect_hs_metrics</text>
</g>
<!-- 5&#45;&gt;12 -->
<g id="edge36" class="edge">
<title>5&#45;&gt;12</title>
<path fill="none" stroke="grey" stroke-width="2" d="M821.38,-1583.87C873.27,-1558.02 971.56,-1509.04 1028.41,-1480.72"/>
<polygon fill="grey" stroke="grey" stroke-width="2" points="1030.11,-1483.78 1037.5,-1476.19 1026.99,-1477.52 1030.11,-1483.78"/>
</g>
<!-- 13 -->
<g id="node14" class="node">
<title>13</title>
<path fill="none" stroke="#56d8a2" stroke-width="2" d="M1236,-1476C1236,-1476 1156,-1476 1156,-1476 1150,-1476 1144,-1470 1144,-1464 1144,-1464 1144,-1452 1144,-1452 1144,-1446 1150,-1440 1156,-1440 1156,-1440 1236,-1440 1236,-1440 1242,-1440 1248,-1446 1248,-1452 1248,-1452 1248,-1464 1248,-1464 1248,-1470 1242,-1476 1236,-1476"/>
<text text-anchor="middle" x="1196" y="-1455.5" font-family="sans" font-size="10.00">samtools_flagstat</text>
</g>
<!-- 5&#45;&gt;13 -->
<g id="edge38" class="edge">
<title>5&#45;&gt;13</title>
<path fill="none" stroke="grey" stroke-width="2" d="M837.63,-1583.95C868.18,-1573.63 907.86,-1560.15 943,-1548 1010.18,-1524.77 1087.21,-1497.6 1138.45,-1479.44"/>
<polygon fill="grey" stroke="grey" stroke-width="2" points="1139.77,-1482.69 1148.02,-1476.05 1137.43,-1476.09 1139.77,-1482.69"/>
</g>
<!-- 14 -->
<g id="node15" class="node">
<title>14</title>
<path fill="none" stroke="#d85656" stroke-width="2" d="M1319.5,-1476C1319.5,-1476 1278.5,-1476 1278.5,-1476 1272.5,-1476 1266.5,-1470 1266.5,-1464 1266.5,-1464 1266.5,-1452 1266.5,-1452 1266.5,-1446 1272.5,-1440 1278.5,-1440 1278.5,-1440 1319.5,-1440 1319.5,-1440 1325.5,-1440 1331.5,-1446 1331.5,-1452 1331.5,-1452 1331.5,-1464 1331.5,-1464 1331.5,-1470 1325.5,-1476 1319.5,-1476"/>
<text text-anchor="middle" x="1299" y="-1455.5" font-family="sans" font-size="10.00">mosdepth</text>
</g>
<!-- 5&#45;&gt;14 -->
<g id="edge40" class="edge">
<title>5&#45;&gt;14</title>
<path fill="none" stroke="grey" stroke-width="2" d="M863.3,-1584.25C955.01,-1563.34 1113.36,-1524.7 1256.28,-1476.07"/>
<polygon fill="grey" stroke="grey" stroke-width="2" points="1257.79,-1479.25 1266.11,-1472.7 1255.52,-1472.63 1257.79,-1479.25"/>
</g>
<!-- 17 -->
<g id="node18" class="node">
<title>17</title>
<path fill="none" stroke="#56d88a" stroke-width="2" d="M200,-1476C200,-1476 78,-1476 78,-1476 72,-1476 66,-1470 66,-1464 66,-1464 66,-1452 66,-1452 66,-1446 72,-1440 78,-1440 78,-1440 200,-1440 200,-1440 206,-1440 212,-1446 212,-1452 212,-1452 212,-1464 212,-1464 212,-1470 206,-1476 200,-1476"/>
<text text-anchor="middle" x="139" y="-1455.5" font-family="sans" font-size="10.00">germline_haplotype_caller</text>
</g>
<!-- 5&#45;&gt;17 -->
<g id="edge44" class="edge">
<title>5&#45;&gt;17</title>
<path fill="none" stroke="grey" stroke-width="2" d="M710.82,-1600.23C577.91,-1597.83 309.81,-1588.02 226,-1548 196.52,-1533.93 171.52,-1505.44 155.99,-1484.47"/>
<polygon fill="grey" stroke="grey" stroke-width="2" points="158.79,-1482.37 150.12,-1476.29 153.1,-1486.45 158.79,-1482.37"/>
</g>
<!-- 18 -->
<g id="node19" class="node">
<title>18</title>
<path fill="none" stroke="#56c1d8" stroke-width="2" d="M349,-1116C349,-1116 197,-1116 197,-1116 191,-1116 185,-1110 185,-1104 185,-1104 185,-1092 185,-1092 185,-1086 191,-1080 197,-1080 197,-1080 349,-1080 349,-1080 355,-1080 361,-1086 361,-1092 361,-1092 361,-1104 361,-1104 361,-1110 355,-1116 349,-1116"/>
<text text-anchor="middle" x="273" y="-1095.5" font-family="sans" font-size="10.00">somatic_mutect2_tumor_normal</text>
</g>
<!-- 5&#45;&gt;18 -->
<g id="edge46" class="edge">
<title>5&#45;&gt;18</title>
<path fill="none" stroke="grey" stroke-width="2" d="M710.94,-1597.1C560.64,-1587.31 240,-1555.15 240,-1459 240,-1459 240,-1459 240,-1241 240,-1199.97 253.23,-1153.97 262.94,-1125.74"/>
<polygon fill="grey" stroke="grey" stroke-width="2" points="266.28,-1126.78 266.32,-1116.19 259.68,-1124.45 266.28,-1126.78"/>
</g>
<!-- 23 -->
<g id="node24" class="node">
<title>23</title>
<path fill="none" stroke="#56d89a" stroke-width="2" d="M336,-1476C336,-1476 280,-1476 280,-1476 274,-1476 268,-1470 268,-1464 268,-1464 268,-1452 268,-1452 268,-1446 274,-1440 280,-1440 280,-1440 336,-1440 336,-1440 342,-1440 348,-1446 348,-1452 348,-1452 348,-1464 348,-1464 348,-1470 342,-1476 336,-1476"/>
<text text-anchor="middle" x="308" y="-1455.5" font-family="sans" font-size="10.00">pon_mutect2</text>
</g>
<!-- 5&#45;&gt;23 -->
<g id="edge53" class="edge">
<title>5&#45;&gt;23</title>
<path fill="none" stroke="grey" stroke-width="2" d="M710.92,-1587.01C663.38,-1577.58 601.13,-1563.97 547,-1548 480.25,-1528.31 405.38,-1499.25 357.51,-1479.75"/>
<polygon fill="grey" stroke="grey" stroke-width="2" points="358.6,-1476.41 348.02,-1475.86 355.94,-1482.89 358.6,-1476.41"/>
</g>
<!-- 30 -->
<g id="node31" class="node">
<title>30</title>
<path fill="none" stroke="#d8a456" stroke-width="2" d="M526,-1476C526,-1476 378,-1476 378,-1476 372,-1476 366,-1470 366,-1464 366,-1464 366,-1452 366,-1452 366,-1446 372,-1440 378,-1440 378,-1440 526,-1440 526,-1440 532,-1440 538,-1446 538,-1452 538,-1452 538,-1464 538,-1464 538,-1470 532,-1476 526,-1476"/>
<text text-anchor="middle" x="452" y="-1455.5" font-family="sans" font-size="10.00">somatic_get_pileup_summaries</text>
</g>
<!-- 5&#45;&gt;30 -->
<g id="edge64" class="edge">
<title>5&#45;&gt;30</title>
<path fill="none" stroke="grey" stroke-width="2" d="M725.36,-1583.94C693.96,-1574.57 655.44,-1562 622,-1548 575.09,-1528.36 523.68,-1500.5 489.82,-1481.2"/>
<polygon fill="grey" stroke="grey" stroke-width="2" points="491.16,-1477.94 480.75,-1476 487.68,-1484.01 491.16,-1477.94"/>
</g>
<!-- 48 -->
<g id="node49" class="node">
<title>48</title>
<path fill="none" stroke="#56d8a9" stroke-width="2" d="M851.5,-1476C851.5,-1476 644.5,-1476 644.5,-1476 638.5,-1476 632.5,-1470 632.5,-1464 632.5,-1464 632.5,-1452 632.5,-1452 632.5,-1446 638.5,-1440 644.5,-1440 644.5,-1440 851.5,-1440 851.5,-1440 857.5,-1440 863.5,-1446 863.5,-1452 863.5,-1452 863.5,-1464 863.5,-1464 863.5,-1470 857.5,-1476 851.5,-1476"/>
<text text-anchor="middle" x="748" y="-1455.5" font-family="sans" font-size="10.00">somatic_cnv_get_snp_pileup_tumor_normal</text>
</g>
<!-- 5&#45;&gt;48 -->
<g id="edge90" class="edge">
<title>5&#45;&gt;48</title>
<path fill="none" stroke="grey" stroke-width="2" d="M784.11,-1583.75C780.9,-1565.68 775.21,-1536.56 768,-1512 765.48,-1503.41 762.22,-1494.23 759.07,-1485.97"/>
<polygon fill="grey" stroke="grey" stroke-width="2" points="762.25,-1484.48 755.34,-1476.44 755.73,-1487.03 762.25,-1484.48"/>
</g>
<!-- 62 -->
<g id="node63" class="node">
<title>62</title>
<path fill="none" stroke="#56d892" stroke-width="2" d="M988,-1476C988,-1476 894,-1476 894,-1476 888,-1476 882,-1470 882,-1464 882,-1464 882,-1452 882,-1452 882,-1446 888,-1440 894,-1440 894,-1440 988,-1440 988,-1440 994,-1440 1000,-1446 1000,-1452 1000,-1452 1000,-1464 1000,-1464 1000,-1470 994,-1476 988,-1476"/>
<text text-anchor="middle" x="941" y="-1455.5" font-family="sans" font-size="10.00">somatic_msi_mantis</text>
</g>
<!-- 5&#45;&gt;62 -->
<g id="edge105" class="edge">
<title>5&#45;&gt;62</title>
<path fill="none" stroke="grey" stroke-width="2" d="M805.58,-1583.87C832.86,-1558.71 883.9,-1511.65 914.93,-1483.04"/>
<polygon fill="grey" stroke="grey" stroke-width="2" points="917.38,-1485.54 922.36,-1476.19 912.63,-1480.4 917.38,-1485.54"/>
</g>
<!-- 6 -->
<g id="node7" class="node">
<title>6</title>
<path fill="none" stroke="#d8ac56" stroke-width="2" d="M815.5,-1692C815.5,-1692 758.5,-1692 758.5,-1692 752.5,-1692 746.5,-1686 746.5,-1680 746.5,-1680 746.5,-1668 746.5,-1668 746.5,-1662 752.5,-1656 758.5,-1656 758.5,-1656 815.5,-1656 815.5,-1656 821.5,-1656 827.5,-1662 827.5,-1668 827.5,-1668 827.5,-1680 827.5,-1680 827.5,-1686 821.5,-1692 815.5,-1692"/>
<text text-anchor="middle" x="787" y="-1671.5" font-family="sans" font-size="10.00">apply_bqsr_1</text>
</g>
<!-- 6&#45;&gt;5 -->
<g id="edge25" class="edge">
<title>6&#45;&gt;5</title>
<path fill="none" stroke="grey" stroke-width="2" d="M787,-1655.7C787,-1647.98 787,-1638.71 787,-1630.11"/>
<polygon fill="grey" stroke="grey" stroke-width="2" points="790.5,-1630.1 787,-1620.1 783.5,-1630.1 790.5,-1630.1"/>
</g>
<!-- 7 -->
<g id="node8" class="node">
<title>7</title>
<path fill="none" stroke="#d89556" stroke-width="2" d="M851,-1908C851,-1908 777,-1908 777,-1908 771,-1908 765,-1902 765,-1896 765,-1896 765,-1884 765,-1884 765,-1878 771,-1872 777,-1872 777,-1872 851,-1872 851,-1872 857,-1872 863,-1878 863,-1884 863,-1884 863,-1896 863,-1896 863,-1902 857,-1908 851,-1908"/>
<text text-anchor="middle" x="814" y="-1887.5" font-family="sans" font-size="10.00">mark_duplicates</text>
</g>
<!-- 7&#45;&gt;6 -->
<g id="edge26" class="edge">
<title>7&#45;&gt;6</title>
<path fill="none" stroke="grey" stroke-width="2" d="M773.82,-1871.77C759.17,-1863.28 744.2,-1851.48 736,-1836 712.19,-1791.04 744.08,-1733.08 767.11,-1700.38"/>
<polygon fill="grey" stroke="grey" stroke-width="2" points="769.97,-1702.39 773.02,-1692.25 764.31,-1698.28 769.97,-1702.39"/>
</g>
<!-- 9 -->
<g id="node10" class="node">
<title>9</title>
<path fill="none" stroke="#56d882" stroke-width="2" d="M870.5,-1836C870.5,-1836 757.5,-1836 757.5,-1836 751.5,-1836 745.5,-1830 745.5,-1824 745.5,-1824 745.5,-1812 745.5,-1812 745.5,-1806 751.5,-1800 757.5,-1800 757.5,-1800 870.5,-1800 870.5,-1800 876.5,-1800 882.5,-1806 882.5,-1812 882.5,-1812 882.5,-1824 882.5,-1824 882.5,-1830 876.5,-1836 870.5,-1836"/>
<text text-anchor="middle" x="814" y="-1815.5" font-family="sans" font-size="10.00">index_bam_before_recal</text>
</g>
<!-- 7&#45;&gt;9 -->
<g id="edge31" class="edge">
<title>7&#45;&gt;9</title>
<path fill="none" stroke="grey" stroke-width="2" d="M814,-1871.7C814,-1863.98 814,-1854.71 814,-1846.11"/>
<polygon fill="grey" stroke="grey" stroke-width="2" points="817.5,-1846.1 814,-1836.1 810.5,-1846.1 817.5,-1846.1"/>
</g>
<!-- 10 -->
<g id="node11" class="node">
<title>10</title>
<path fill="none" stroke="#68d856" stroke-width="2" d="M857,-1764C857,-1764 827,-1764 827,-1764 821,-1764 815,-1758 815,-1752 815,-1752 815,-1740 815,-1740 815,-1734 821,-1728 827,-1728 827,-1728 857,-1728 857,-1728 863,-1728 869,-1734 869,-1740 869,-1740 869,-1752 869,-1752 869,-1758 863,-1764 857,-1764"/>
<text text-anchor="middle" x="842" y="-1743.5" font-family="sans" font-size="10.00">bqsr_1</text>
</g>
<!-- 7&#45;&gt;10 -->
<g id="edge32" class="edge">
<title>7&#45;&gt;10</title>
<path fill="none" stroke="grey" stroke-width="2" d="M854.18,-1871.77C868.83,-1863.28 883.8,-1851.48 892,-1836 899.49,-1821.86 897.91,-1814.87 892,-1800 887.71,-1789.2 880.06,-1779.32 872.01,-1771.1"/>
<polygon fill="grey" stroke="grey" stroke-width="2" points="874.25,-1768.4 864.6,-1764.04 869.42,-1773.47 874.25,-1768.4"/>
</g>
<!-- 8&#45;&gt;7 -->
<g id="edge29" class="edge">
<title>8&#45;&gt;7</title>
<path fill="none" stroke="grey" stroke-width="2" d="M814,-1943.7C814,-1935.98 814,-1926.71 814,-1918.11"/>
<polygon fill="grey" stroke="grey" stroke-width="2" points="817.5,-1918.1 814,-1908.1 810.5,-1918.1 817.5,-1918.1"/>
</g>
<!-- 9&#45;&gt;6 -->
<g id="edge28" class="edge">
<title>9&#45;&gt;6</title>
<path fill="none" stroke="grey" stroke-width="2" d="M810.74,-1799.87C806.14,-1775.67 797.69,-1731.21 792.21,-1702.39"/>
<polygon fill="grey" stroke="grey" stroke-width="2" points="795.57,-1701.36 790.27,-1692.19 788.7,-1702.67 795.57,-1701.36"/>
</g>
<!-- 9&#45;&gt;10 -->
<g id="edge33" class="edge">
<title>9&#45;&gt;10</title>
<path fill="none" stroke="grey" stroke-width="2" d="M820.92,-1799.7C824.07,-1791.81 827.88,-1782.3 831.38,-1773.55"/>
<polygon fill="grey" stroke="grey" stroke-width="2" points="834.69,-1774.69 835.16,-1764.1 828.19,-1772.09 834.69,-1774.69"/>
</g>
<!-- 10&#45;&gt;6 -->
<g id="edge27" class="edge">
<title>10&#45;&gt;6</title>
<path fill="none" stroke="grey" stroke-width="2" d="M828.4,-1727.7C821.88,-1719.39 813.93,-1709.28 806.75,-1700.14"/>
<polygon fill="grey" stroke="grey" stroke-width="2" points="809.37,-1697.81 800.44,-1692.1 803.87,-1702.13 809.37,-1697.81"/>
</g>
<!-- 11&#45;&gt;0 -->
<g id="edge17" class="edge">
<title>11&#45;&gt;0</title>
<path fill="none" stroke="grey" stroke-width="2" d="M661.98,-1511.89C647.92,-1503 632.6,-1490.87 623,-1476 601.06,-1442.02 604,-1427.45 604,-1387 604,-1387 604,-1387 604,-305 604,-252.99 548.16,-111.49 582,-72 620.96,-26.54 806.54,-19.74 886.84,-18.96"/>
<polygon fill="grey" stroke="grey" stroke-width="2" points="887.02,-22.46 896.99,-18.89 886.97,-15.46 887.02,-22.46"/>
</g>
<!-- 11&#45;&gt;12 -->
<g id="edge35" class="edge">
<title>11&#45;&gt;12</title>
<path fill="none" stroke="grey" stroke-width="2" d="M759.09,-1520.03C820.62,-1511 916.31,-1495.87 1008.68,-1475.95"/>
<polygon fill="grey" stroke="grey" stroke-width="2" points="1009.44,-1479.37 1018.47,-1473.82 1007.95,-1472.53 1009.44,-1479.37"/>
</g>
<!-- 11&#45;&gt;13 -->
<g id="edge37" class="edge">
<title>11&#45;&gt;13</title>
<path fill="none" stroke="grey" stroke-width="2" d="M759.24,-1524.34C843.34,-1517.55 995.4,-1502.94 1133.93,-1476.04"/>
<polygon fill="grey" stroke="grey" stroke-width="2" points="1134.75,-1479.45 1143.88,-1474.09 1133.39,-1472.58 1134.75,-1479.45"/>
</g>
<!-- 11&#45;&gt;14 -->
<g id="edge39" class="edge">
<title>11&#45;&gt;14</title>
<path fill="none" stroke="grey" stroke-width="2" d="M759.21,-1528.96C862.79,-1527.59 1072.84,-1519.39 1256.45,-1475.67"/>
<polygon fill="grey" stroke="grey" stroke-width="2" points="1257.39,-1479.05 1266.28,-1473.29 1255.74,-1472.24 1257.39,-1479.05"/>
</g>
<!-- 11&#45;&gt;17 -->
<g id="edge43" class="edge">
<title>11&#45;&gt;17</title>
<path fill="none" stroke="grey" stroke-width="2" d="M630.68,-1521.58C545.58,-1511.68 390.92,-1493.36 259,-1476 247.18,-1474.45 234.72,-1472.75 222.48,-1471.04"/>
<polygon fill="grey" stroke="grey" stroke-width="2" points="222.65,-1467.53 212.27,-1469.61 221.68,-1474.47 222.65,-1467.53"/>
</g>
<!-- 11&#45;&gt;18 -->
<g id="edge45" class="edge">
<title>11&#45;&gt;18</title>
<path fill="none" stroke="grey" stroke-width="2" d="M640.73,-1511.95C622.3,-1503.73 603.09,-1492.07 590,-1476 564.13,-1444.23 566,-1427.97 566,-1387 566,-1387 566,-1387 566,-1241 566,-1152.51 456.43,-1119.14 371.3,-1106.57"/>
<polygon fill="grey" stroke="grey" stroke-width="2" points="371.7,-1103.1 361.31,-1105.18 370.73,-1110.03 371.7,-1103.1"/>
</g>
<!-- 11&#45;&gt;23 -->
<g id="edge52" class="edge">
<title>11&#45;&gt;23</title>
<path fill="none" stroke="grey" stroke-width="2" d="M630.78,-1522.39C564.48,-1514.78 458.06,-1500.42 358.16,-1476.05"/>
<polygon fill="grey" stroke="grey" stroke-width="2" points="358.75,-1472.6 348.2,-1473.59 357.07,-1479.39 358.75,-1472.6"/>
</g>
<!-- 11&#45;&gt;30 -->
<g id="edge63" class="edge">
<title>11&#45;&gt;30</title>
<path fill="none" stroke="grey" stroke-width="2" d="M635.87,-1511.97C601.32,-1502.01 557.55,-1489.41 521.38,-1478.99"/>
<polygon fill="grey" stroke="grey" stroke-width="2" points="521.98,-1475.52 511.4,-1476.11 520.04,-1482.24 521.98,-1475.52"/>
</g>
<!-- 11&#45;&gt;48 -->
<g id="edge89" class="edge">
<title>11&#45;&gt;48</title>
<path fill="none" stroke="grey" stroke-width="2" d="M708.1,-1511.7C714.39,-1503.39 722.05,-1493.28 728.96,-1484.14"/>
<polygon fill="grey" stroke="grey" stroke-width="2" points="731.8,-1486.19 735.05,-1476.1 726.22,-1481.96 731.8,-1486.19"/>
</g>
<!-- 11&#45;&gt;62 -->
<g id="edge104" class="edge">
<title>11&#45;&gt;62</title>
<path fill="none" stroke="grey" stroke-width="2" d="M754.86,-1511.97C790.24,-1501.9 835.19,-1489.11 872.05,-1478.62"/>
<polygon fill="grey" stroke="grey" stroke-width="2" points="873.06,-1481.97 881.72,-1475.87 871.14,-1475.24 873.06,-1481.97"/>
</g>
<!-- 12&#45;&gt;0 -->
<g id="edge12" class="edge">
<title>12&#45;&gt;0</title>
<path fill="none" stroke="grey" stroke-width="2" d="M1125.66,-1441.6C1238.29,-1408.9 1489,-1333.98 1489,-1315 1489,-1315 1489,-1315 1489,-161 1489,-118.81 1489.39,-97.78 1456,-72 1416.95,-41.85 1075.81,-25.22 961.3,-20.45"/>
<polygon fill="grey" stroke="grey" stroke-width="2" points="961.39,-16.95 951.25,-20.04 961.1,-23.95 961.39,-16.95"/>
</g>
<!-- 13&#45;&gt;0 -->
<g id="edge13" class="edge">
<title>13&#45;&gt;0</title>
<path fill="none" stroke="grey" stroke-width="2" d="M1248.08,-1440.32C1341.3,-1409.71 1527,-1344.98 1527,-1315 1527,-1315 1527,-1315 1527,-161 1527,-116.87 1519.34,-97.03 1483,-72 1440.09,-42.45 1078.97,-25.29 961.07,-20.44"/>
<polygon fill="grey" stroke="grey" stroke-width="2" points="961.21,-16.94 951.07,-20.03 960.92,-23.93 961.21,-16.94"/>
</g>
<!-- 14&#45;&gt;0 -->
<g id="edge1" class="edge">
<title>14&#45;&gt;0</title>
<path fill="none" stroke="grey" stroke-width="2" d="M1331.62,-1454.62C1402.65,-1447.48 1565,-1419.7 1565,-1315 1565,-1315 1565,-1315 1565,-161 1565,-115.41 1552.38,-96.6 1514,-72 1467.51,-42.2 1083.77,-25.1 961.37,-20.36"/>
<polygon fill="grey" stroke="grey" stroke-width="2" points="961.14,-16.85 951.02,-19.97 960.87,-23.85 961.14,-16.85"/>
</g>
<!-- 15 -->
<g id="node16" class="node">
<title>15</title>
<path fill="none" stroke="#d6d856" stroke-width="2" d="M131.5,-1116C131.5,-1116 50.5,-1116 50.5,-1116 44.5,-1116 38.5,-1110 38.5,-1104 38.5,-1104 38.5,-1092 38.5,-1092 38.5,-1086 44.5,-1080 50.5,-1080 50.5,-1080 131.5,-1080 131.5,-1080 137.5,-1080 143.5,-1086 143.5,-1092 143.5,-1092 143.5,-1104 143.5,-1104 143.5,-1110 137.5,-1116 131.5,-1116"/>
<text text-anchor="middle" x="91" y="-1095.5" font-family="sans" font-size="10.00">germline_annovar</text>
</g>
<!-- 15&#45;&gt;0 -->
<g id="edge8" class="edge">
<title>15&#45;&gt;0</title>
<path fill="none" stroke="grey" stroke-width="2" d="M80.02,-1079.84C64.49,-1053.89 38,-1002.63 38,-955 38,-955 38,-955 38,-161 38,-113.79 55.23,-95.81 96,-72 164.86,-31.79 734.1,-21.49 886.56,-19.44"/>
<polygon fill="grey" stroke="grey" stroke-width="2" points="886.85,-22.93 896.8,-19.3 886.76,-15.94 886.85,-22.93"/>
</g>
<!-- 16 -->
<g id="node17" class="node">
<title>16</title>
<path fill="none" stroke="#56b9d8" stroke-width="2" d="M191.5,-1404C191.5,-1404 48.5,-1404 48.5,-1404 42.5,-1404 36.5,-1398 36.5,-1392 36.5,-1392 36.5,-1380 36.5,-1380 36.5,-1374 42.5,-1368 48.5,-1368 48.5,-1368 191.5,-1368 191.5,-1368 197.5,-1368 203.5,-1374 203.5,-1380 203.5,-1380 203.5,-1392 203.5,-1392 203.5,-1398 197.5,-1404 191.5,-1404"/>
<text text-anchor="middle" x="120" y="-1383.5" font-family="sans" font-size="10.00">germline_filter_false_positives</text>
</g>
<!-- 16&#45;&gt;15 -->
<g id="edge41" class="edge">
<title>16&#45;&gt;15</title>
<path fill="none" stroke="grey" stroke-width="2" d="M118.27,-1367.97C113.43,-1320.19 99.68,-1184.62 93.76,-1126.27"/>
<polygon fill="grey" stroke="grey" stroke-width="2" points="97.25,-1125.9 92.75,-1116.31 90.28,-1126.61 97.25,-1125.9"/>
</g>
<!-- 17&#45;&gt;16 -->
<g id="edge42" class="edge">
<title>17&#45;&gt;16</title>
<path fill="none" stroke="grey" stroke-width="2" d="M134.3,-1439.7C132.19,-1431.9 129.64,-1422.51 127.28,-1413.83"/>
<polygon fill="grey" stroke="grey" stroke-width="2" points="130.64,-1412.84 124.64,-1404.1 123.88,-1414.67 130.64,-1412.84"/>
</g>
<!-- 18&#45;&gt;0 -->
<g id="edge15" class="edge">
<title>18&#45;&gt;0</title>
<path fill="none" stroke="grey" stroke-width="2" d="M209.04,-1079.98C151.52,-1060.33 76,-1021.82 76,-955 76,-955 76,-955 76,-161 76,-100.84 122.45,-95.11 178,-72 308.15,-17.87 754.14,-17.43 886.61,-18.55"/>
<polygon fill="grey" stroke="grey" stroke-width="2" points="886.64,-22.05 896.67,-18.64 886.7,-15.05 886.64,-22.05"/>
</g>
<!-- 27 -->
<g id="node28" class="node">
<title>27</title>
<path fill="none" stroke="#56a2d8" stroke-width="2" d="M442,-972C442,-972 290,-972 290,-972 284,-972 278,-966 278,-960 278,-960 278,-948 278,-948 278,-942 284,-936 290,-936 290,-936 442,-936 442,-936 448,-936 454,-942 454,-948 454,-948 454,-960 454,-960 454,-966 448,-972 442,-972"/>
<text text-anchor="middle" x="366" y="-951.5" font-family="sans" font-size="10.00">somatic_maf_filter_mutect_calls</text>
</g>
<!-- 18&#45;&gt;27 -->
<g id="edge60" class="edge">
<title>18&#45;&gt;27</title>
<path fill="none" stroke="grey" stroke-width="2" d="M318.5,-1079.76C334.31,-1071.42 350.46,-1059.72 360,-1044 371.2,-1025.54 371.98,-1000.79 370.37,-982.08"/>
<polygon fill="grey" stroke="grey" stroke-width="2" points="373.84,-981.66 369.24,-972.12 366.89,-982.45 373.84,-981.66"/>
</g>
<!-- 28 -->
<g id="node29" class="node">
<title>28</title>
<path fill="none" stroke="#78d856" stroke-width="2" d="M339.5,-1044C339.5,-1044 156.5,-1044 156.5,-1044 150.5,-1044 144.5,-1038 144.5,-1032 144.5,-1032 144.5,-1020 144.5,-1020 144.5,-1014 150.5,-1008 156.5,-1008 156.5,-1008 339.5,-1008 339.5,-1008 345.5,-1008 351.5,-1014 351.5,-1020 351.5,-1020 351.5,-1032 351.5,-1032 351.5,-1038 345.5,-1044 339.5,-1044"/>
<text text-anchor="middle" x="248" y="-1023.5" font-family="sans" font-size="10.00">somatic_learn_read_orientation_model</text>
</g>
<!-- 18&#45;&gt;28 -->
<g id="edge61" class="edge">
<title>18&#45;&gt;28</title>
<path fill="none" stroke="grey" stroke-width="2" d="M266.82,-1079.7C264,-1071.81 260.61,-1062.3 257.48,-1053.55"/>
<polygon fill="grey" stroke="grey" stroke-width="2" points="260.77,-1052.34 254.11,-1044.1 254.18,-1054.7 260.77,-1052.34"/>
</g>
<!-- 19 -->
<g id="node20" class="node">
<title>19</title>
<path fill="none" stroke="#c6d856" stroke-width="2" d="M328.5,-1188C328.5,-1188 281.5,-1188 281.5,-1188 275.5,-1188 269.5,-1182 269.5,-1176 269.5,-1176 269.5,-1164 269.5,-1164 269.5,-1158 275.5,-1152 281.5,-1152 281.5,-1152 328.5,-1152 328.5,-1152 334.5,-1152 340.5,-1158 340.5,-1164 340.5,-1164 340.5,-1176 340.5,-1176 340.5,-1182 334.5,-1188 328.5,-1188"/>
<text text-anchor="middle" x="305" y="-1167.5" font-family="sans" font-size="10.00">pon_merge</text>
</g>
<!-- 19&#45;&gt;18 -->
<g id="edge47" class="edge">
<title>19&#45;&gt;18</title>
<path fill="none" stroke="grey" stroke-width="2" d="M297.09,-1151.7C293.45,-1143.73 289.05,-1134.1 285.01,-1125.26"/>
<polygon fill="grey" stroke="grey" stroke-width="2" points="288.16,-1123.74 280.82,-1116.1 281.79,-1126.65 288.16,-1123.74"/>
</g>
<!-- 20 -->
<g id="node21" class="node">
<title>20</title>
<path fill="none" stroke="#d89c56" stroke-width="2" d="M323.5,-1260C323.5,-1260 288.5,-1260 288.5,-1260 282.5,-1260 276.5,-1254 276.5,-1248 276.5,-1248 276.5,-1236 276.5,-1236 276.5,-1230 282.5,-1224 288.5,-1224 288.5,-1224 323.5,-1224 323.5,-1224 329.5,-1224 335.5,-1230 335.5,-1236 335.5,-1236 335.5,-1248 335.5,-1248 335.5,-1254 329.5,-1260 323.5,-1260"/>
<text text-anchor="middle" x="306" y="-1239.5" font-family="sans" font-size="10.00">pon_sort</text>
</g>
<!-- 20&#45;&gt;19 -->
<g id="edge48" class="edge">
<title>20&#45;&gt;19</title>
<path fill="none" stroke="grey" stroke-width="2" d="M305.75,-1223.7C305.64,-1215.98 305.51,-1206.71 305.39,-1198.11"/>
<polygon fill="grey" stroke="grey" stroke-width="2" points="308.89,-1198.05 305.24,-1188.1 301.89,-1198.15 308.89,-1198.05"/>
</g>
<!-- 21 -->
<g id="node22" class="node">
<title>21</title>
<path fill="none" stroke="#56d85b" stroke-width="2" d="M335.5,-1332C335.5,-1332 288.5,-1332 288.5,-1332 282.5,-1332 276.5,-1326 276.5,-1320 276.5,-1320 276.5,-1308 276.5,-1308 276.5,-1302 282.5,-1296 288.5,-1296 288.5,-1296 335.5,-1296 335.5,-1296 341.5,-1296 347.5,-1302 347.5,-1308 347.5,-1308 347.5,-1320 347.5,-1320 347.5,-1326 341.5,-1332 335.5,-1332"/>
<text text-anchor="middle" x="312" y="-1311.5" font-family="sans" font-size="10.00">pon_create</text>
</g>
<!-- 21&#45;&gt;20 -->
<g id="edge49" class="edge">
<title>21&#45;&gt;20</title>
<path fill="none" stroke="grey" stroke-width="2" d="M310.52,-1295.7C309.86,-1287.98 309.06,-1278.71 308.32,-1270.11"/>
<polygon fill="grey" stroke="grey" stroke-width="2" points="311.81,-1269.77 307.47,-1260.1 304.83,-1270.37 311.81,-1269.77"/>
</g>
<!-- 22 -->
<g id="node23" class="node">
<title>22</title>
<path fill="none" stroke="#d86e56" stroke-width="2" d="M355.5,-1404C355.5,-1404 280.5,-1404 280.5,-1404 274.5,-1404 268.5,-1398 268.5,-1392 268.5,-1392 268.5,-1380 268.5,-1380 268.5,-1374 274.5,-1368 280.5,-1368 280.5,-1368 355.5,-1368 355.5,-1368 361.5,-1368 367.5,-1374 367.5,-1380 367.5,-1380 367.5,-1392 367.5,-1392 367.5,-1398 361.5,-1404 355.5,-1404"/>
<text text-anchor="middle" x="318" y="-1383.5" font-family="sans" font-size="10.00">pon_genomicsdb</text>
</g>
<!-- 22&#45;&gt;21 -->
<g id="edge50" class="edge">
<title>22&#45;&gt;21</title>
<path fill="none" stroke="grey" stroke-width="2" d="M316.52,-1367.7C315.86,-1359.98 315.06,-1350.71 314.32,-1342.11"/>
<polygon fill="grey" stroke="grey" stroke-width="2" points="317.81,-1341.77 313.47,-1332.1 310.83,-1342.37 317.81,-1341.77"/>
</g>
<!-- 23&#45;&gt;22 -->
<g id="edge51" class="edge">
<title>23&#45;&gt;22</title>
<path fill="none" stroke="grey" stroke-width="2" d="M310.47,-1439.7C311.57,-1431.98 312.9,-1422.71 314.13,-1414.11"/>
<polygon fill="grey" stroke="grey" stroke-width="2" points="317.61,-1414.5 315.56,-1404.1 310.68,-1413.51 317.61,-1414.5"/>
</g>
<!-- 24 -->
<g id="node25" class="node">
<title>24</title>
<path fill="none" stroke="#5692d8" stroke-width="2" d="M315,-684C315,-684 151,-684 151,-684 145,-684 139,-678 139,-672 139,-672 139,-660 139,-660 139,-654 145,-648 151,-648 151,-648 315,-648 315,-648 321,-648 327,-654 327,-660 327,-660 327,-672 327,-672 327,-678 321,-684 315,-684"/>
<text text-anchor="middle" x="233" y="-663.5" font-family="sans" font-size="10.00">somatic_maf_filters_process_fields</text>
</g>
<!-- 24&#45;&gt;0 -->
<g id="edge19" class="edge">
<title>24&#45;&gt;0</title>
<path fill="none" stroke="grey" stroke-width="2" d="M181.09,-647.9C163.41,-639.66 145.08,-627.99 133,-612 108.62,-579.72 114,-563.45 114,-523 114,-523 114,-523 114,-161 114,-142.2 1.36,-151.52 310,-72 420.14,-43.62 770.85,-25.82 886.56,-20.61"/>
<polygon fill="grey" stroke="grey" stroke-width="2" points="886.86,-24.1 896.7,-20.15 886.55,-17.1 886.86,-24.1"/>
</g>
<!-- 33 -->
<g id="node34" class="node">
<title>33</title>
<path fill="none" stroke="#56d8d8" stroke-width="2" d="M298,-612C298,-612 154,-612 154,-612 148,-612 142,-606 142,-600 142,-600 142,-588 142,-588 142,-582 148,-576 154,-576 154,-576 298,-576 298,-576 304,-576 310,-582 310,-588 310,-588 310,-600 310,-600 310,-606 304,-612 298,-612"/>
<text text-anchor="middle" x="226" y="-591.5" font-family="sans" font-size="10.00">somatic_maf_filters_aggregate</text>
</g>
<!-- 24&#45;&gt;33 -->
<g id="edge71" class="edge">
<title>24&#45;&gt;33</title>
<path fill="none" stroke="grey" stroke-width="2" d="M231.27,-647.7C230.5,-639.98 229.57,-630.71 228.71,-622.11"/>
<polygon fill="grey" stroke="grey" stroke-width="2" points="232.19,-621.71 227.71,-612.1 225.22,-622.4 232.19,-621.71"/>
</g>
<!-- 37 -->
<g id="node38" class="node">
<title>37</title>
<path fill="none" stroke="#d8cb56" stroke-width="2" d="M459.5,-612C459.5,-612 340.5,-612 340.5,-612 334.5,-612 328.5,-606 328.5,-600 328.5,-600 328.5,-588 328.5,-588 328.5,-582 334.5,-576 340.5,-576 340.5,-576 459.5,-576 459.5,-576 465.5,-576 471.5,-582 471.5,-588 471.5,-588 471.5,-600 471.5,-600 471.5,-606 465.5,-612 459.5,-612"/>
<text text-anchor="middle" x="400" y="-591.5" font-family="sans" font-size="10.00">somatic_maf_select_pass</text>
</g>
<!-- 24&#45;&gt;37 -->
<g id="edge76" class="edge">
<title>24&#45;&gt;37</title>
<path fill="none" stroke="grey" stroke-width="2" d="M273.85,-647.88C296.78,-638.26 325.58,-626.19 349.87,-616.01"/>
<polygon fill="grey" stroke="grey" stroke-width="2" points="351.41,-619.16 359.28,-612.07 348.7,-612.71 351.41,-619.16"/>
</g>
<!-- 25 -->
<g id="node26" class="node">
<title>25</title>
<path fill="none" stroke="#56d8d8" stroke-width="2" d="M445,-828C445,-828 257,-828 257,-828 251,-828 245,-822 245,-816 245,-816 245,-804 245,-804 245,-798 251,-792 257,-792 257,-792 445,-792 445,-792 451,-792 457,-798 457,-804 457,-804 457,-816 457,-816 457,-822 451,-828 445,-828"/>
<text text-anchor="middle" x="351" y="-807.5" font-family="sans" font-size="10.00">somatic_maf_filter_outside_intersection</text>
</g>
<!-- 25&#45;&gt;24 -->
<g id="edge54" class="edge">
<title>25&#45;&gt;24</title>
<path fill="none" stroke="grey" stroke-width="2" d="M351.22,-791.85C350.61,-772.54 346.96,-741.09 331,-720 320.99,-706.78 306.7,-696.47 292.12,-688.61"/>
<polygon fill="grey" stroke="grey" stroke-width="2" points="293.54,-685.41 283.03,-684.02 290.38,-691.65 293.54,-685.41"/>
</g>
<!-- 31 -->
<g id="node32" class="node">
<title>31</title>
<path fill="none" stroke="#d87d56" stroke-width="2" d="M310.5,-756C310.5,-756 155.5,-756 155.5,-756 149.5,-756 143.5,-750 143.5,-744 143.5,-744 143.5,-732 143.5,-732 143.5,-726 149.5,-720 155.5,-720 155.5,-720 310.5,-720 310.5,-720 316.5,-720 322.5,-726 322.5,-732 322.5,-732 322.5,-744 322.5,-744 322.5,-750 316.5,-756 310.5,-756"/>
<text text-anchor="middle" x="233" y="-735.5" font-family="sans" font-size="10.00">somatic_maf_filters_vcf_to_table</text>
</g>
<!-- 25&#45;&gt;31 -->
<g id="edge65" class="edge">
<title>25&#45;&gt;31</title>
<path fill="none" stroke="grey" stroke-width="2" d="M322.13,-791.88C306.71,-782.72 287.52,-771.34 270.9,-761.48"/>
<polygon fill="grey" stroke="grey" stroke-width="2" points="272.36,-758.28 261.98,-756.19 268.79,-764.3 272.36,-758.28"/>
</g>
<!-- 26 -->
<g id="node27" class="node">
<title>26</title>
<path fill="none" stroke="#5673d8" stroke-width="2" d="M437.5,-900C437.5,-900 274.5,-900 274.5,-900 268.5,-900 262.5,-894 262.5,-888 262.5,-888 262.5,-876 262.5,-876 262.5,-870 268.5,-864 274.5,-864 274.5,-864 437.5,-864 437.5,-864 443.5,-864 449.5,-870 449.5,-876 449.5,-876 449.5,-888 449.5,-888 449.5,-894 443.5,-900 437.5,-900"/>
<text text-anchor="middle" x="356" y="-879.5" font-family="sans" font-size="10.00">somatic_maf_filter_false_positives</text>
</g>
<!-- 26&#45;&gt;25 -->
<g id="edge56" class="edge">
<title>26&#45;&gt;25</title>
<path fill="none" stroke="grey" stroke-width="2" d="M354.76,-863.7C354.21,-855.98 353.55,-846.71 352.94,-838.11"/>
<polygon fill="grey" stroke="grey" stroke-width="2" points="356.43,-837.83 352.22,-828.1 349.44,-838.33 356.43,-837.83"/>
</g>
<!-- 27&#45;&gt;26 -->
<g id="edge57" class="edge">
<title>27&#45;&gt;26</title>
<path fill="none" stroke="grey" stroke-width="2" d="M363.53,-935.7C362.43,-927.98 361.1,-918.71 359.87,-910.11"/>
<polygon fill="grey" stroke="grey" stroke-width="2" points="363.32,-909.51 358.44,-900.1 356.39,-910.5 363.32,-909.51"/>
</g>
<!-- 28&#45;&gt;27 -->
<g id="edge58" class="edge">
<title>28&#45;&gt;27</title>
<path fill="none" stroke="grey" stroke-width="2" d="M276.87,-1007.88C292.29,-998.72 311.48,-987.34 328.1,-977.48"/>
<polygon fill="grey" stroke="grey" stroke-width="2" points="330.21,-980.3 337.02,-972.19 326.64,-974.28 330.21,-980.3"/>
</g>
<!-- 29 -->
<g id="node30" class="node">
<title>29</title>
<path fill="none" stroke="#d8a456" stroke-width="2" d="M523.5,-1260C523.5,-1260 366.5,-1260 366.5,-1260 360.5,-1260 354.5,-1254 354.5,-1248 354.5,-1248 354.5,-1236 354.5,-1236 354.5,-1230 360.5,-1224 366.5,-1224 366.5,-1224 523.5,-1224 523.5,-1224 529.5,-1224 535.5,-1230 535.5,-1236 535.5,-1236 535.5,-1248 535.5,-1248 535.5,-1254 529.5,-1260 523.5,-1260"/>
<text text-anchor="middle" x="445" y="-1239.5" font-family="sans" font-size="10.00">somatic_calculate_contamination</text>
</g>
<!-- 29&#45;&gt;27 -->
<g id="edge59" class="edge">
<title>29&#45;&gt;27</title>
<path fill="none" stroke="grey" stroke-width="2" d="M440.29,-1223.97C427.1,-1176.19 389.65,-1040.62 373.53,-982.27"/>
<polygon fill="grey" stroke="grey" stroke-width="2" points="376.82,-981.01 370.78,-972.31 370.07,-982.88 376.82,-981.01"/>
</g>
<!-- 30&#45;&gt;29 -->
<g id="edge62" class="edge">
<title>30&#45;&gt;29</title>
<path fill="none" stroke="grey" stroke-width="2" d="M451.44,-1439.85C450.23,-1402.83 447.36,-1315.18 445.9,-1270.39"/>
<polygon fill="grey" stroke="grey" stroke-width="2" points="449.39,-1270.11 445.56,-1260.23 442.39,-1270.34 449.39,-1270.11"/>
</g>
<!-- 31&#45;&gt;24 -->
<g id="edge55" class="edge">
<title>31&#45;&gt;24</title>
<path fill="none" stroke="grey" stroke-width="2" d="M233,-719.7C233,-711.98 233,-702.71 233,-694.11"/>
<polygon fill="grey" stroke="grey" stroke-width="2" points="236.5,-694.1 233,-684.1 229.5,-694.1 236.5,-694.1"/>
</g>
<!-- 32 -->
<g id="node33" class="node">
<title>32</title>
<path fill="none" stroke="#d8b456" stroke-width="2" d="M453,-108C453,-108 331,-108 331,-108 325,-108 319,-102 319,-96 319,-96 319,-84 319,-84 319,-78 325,-72 331,-72 331,-72 453,-72 453,-72 459,-72 465,-78 465,-84 465,-84 465,-96 465,-96 465,-102 459,-108 453,-108"/>
<text text-anchor="middle" x="392" y="-87.5" font-family="sans" font-size="10.00">somatic_maf_last_filtering</text>
</g>
<!-- 32&#45;&gt;0 -->
<g id="edge4" class="edge">
<title>32&#45;&gt;0</title>
<path fill="none" stroke="grey" stroke-width="2" d="M465.14,-79.38C580.22,-64.23 799.46,-35.39 886.77,-23.9"/>
<polygon fill="grey" stroke="grey" stroke-width="2" points="887.29,-27.36 896.75,-22.59 886.38,-20.42 887.29,-27.36"/>
</g>
<!-- 33&#45;&gt;32 -->
<g id="edge70" class="edge">
<title>33&#45;&gt;32</title>
<path fill="none" stroke="grey" stroke-width="2" d="M209.94,-575.69C188.18,-550.36 152,-500.76 152,-451 152,-451 152,-451 152,-233 152,-192.55 142.76,-172.96 171,-144 190.29,-124.22 254.6,-110.22 308.91,-101.6"/>
<polygon fill="grey" stroke="grey" stroke-width="2" points="309.57,-105.04 318.92,-100.05 308.51,-98.12 309.57,-105.04"/>
</g>
<!-- 34 -->
<g id="node35" class="node">
<title>34</title>
<path fill="none" stroke="#56d873" stroke-width="2" d="M303.5,-180C303.5,-180 192.5,-180 192.5,-180 186.5,-180 180.5,-174 180.5,-168 180.5,-168 180.5,-156 180.5,-156 180.5,-150 186.5,-144 192.5,-144 192.5,-144 303.5,-144 303.5,-144 309.5,-144 315.5,-150 315.5,-156 315.5,-156 315.5,-168 315.5,-168 315.5,-174 309.5,-180 303.5,-180"/>
<text text-anchor="middle" x="248" y="-159.5" font-family="sans" font-size="10.00">somatic_maf_aggregate</text>
</g>
<!-- 34&#45;&gt;32 -->
<g id="edge67" class="edge">
<title>34&#45;&gt;32</title>
<path fill="none" stroke="grey" stroke-width="2" d="M283.23,-143.88C302.58,-134.47 326.77,-122.71 347.43,-112.67"/>
<polygon fill="grey" stroke="grey" stroke-width="2" points="349.17,-115.71 356.64,-108.19 346.11,-109.41 349.17,-115.71"/>
</g>
<!-- 35 -->
<g id="node36" class="node">
<title>35</title>
<path fill="none" stroke="#a7d856" stroke-width="2" d="M328,-396C328,-396 272,-396 272,-396 266,-396 260,-390 260,-384 260,-384 260,-372 260,-372 260,-366 266,-360 272,-360 272,-360 328,-360 328,-360 334,-360 340,-366 340,-372 340,-372 340,-384 340,-384 340,-390 334,-396 328,-396"/>
<text text-anchor="middle" x="300" y="-375.5" font-family="sans" font-size="10.00">somatic_maf</text>
</g>
<!-- 35&#45;&gt;34 -->
<g id="edge72" class="edge">
<title>35&#45;&gt;34</title>
<path fill="none" stroke="grey" stroke-width="2" d="M274,-359.83C261.45,-350.47 246.98,-337.95 237,-324 217.02,-296.08 215.33,-285.75 209,-252 206.05,-236.27 204.01,-231.2 209,-216 212.31,-205.91 218.37,-196.15 224.73,-187.82"/>
<polygon fill="grey" stroke="grey" stroke-width="2" points="227.5,-189.97 231.11,-180.01 222.08,-185.54 227.5,-189.97"/>
</g>
<!-- 42 -->
<g id="node43" class="node">
<title>42</title>
<path fill="none" stroke="#56d8b1" stroke-width="2" d="M342,-324C342,-324 258,-324 258,-324 252,-324 246,-318 246,-312 246,-312 246,-300 246,-300 246,-294 252,-288 258,-288 258,-288 342,-288 342,-288 348,-288 354,-294 354,-300 354,-300 354,-312 354,-312 354,-318 348,-324 342,-324"/>
<text text-anchor="middle" x="300" y="-303.5" font-family="sans" font-size="10.00">somatic_maf_civic</text>
</g>
<!-- 35&#45;&gt;42 -->
<g id="edge82" class="edge">
<title>35&#45;&gt;42</title>
<path fill="none" stroke="grey" stroke-width="2" d="M300,-359.7C300,-351.98 300,-342.71 300,-334.11"/>
<polygon fill="grey" stroke="grey" stroke-width="2" points="303.5,-334.1 300,-324.1 296.5,-334.1 303.5,-334.1"/>
</g>
<!-- 44 -->
<g id="node45" class="node">
<title>44</title>
<path fill="none" stroke="#56d8b9" stroke-width="2" d="M509.5,-324C509.5,-324 412.5,-324 412.5,-324 406.5,-324 400.5,-318 400.5,-312 400.5,-312 400.5,-300 400.5,-300 400.5,-294 406.5,-288 412.5,-288 412.5,-288 509.5,-288 509.5,-288 515.5,-288 521.5,-294 521.5,-300 521.5,-300 521.5,-312 521.5,-312 521.5,-318 515.5,-324 509.5,-324"/>
<text text-anchor="middle" x="461" y="-303.5" font-family="sans" font-size="10.00">somatic_maf_oncokb</text>
</g>
<!-- 35&#45;&gt;44 -->
<g id="edge84" class="edge">
<title>35&#45;&gt;44</title>
<path fill="none" stroke="grey" stroke-width="2" d="M339.39,-359.88C361.39,-350.31 389.01,-338.3 412.36,-328.15"/>
<polygon fill="grey" stroke="grey" stroke-width="2" points="413.97,-331.27 421.74,-324.07 411.18,-324.85 413.97,-331.27"/>
</g>
<!-- 36 -->
<g id="node37" class="node">
<title>36</title>
<path fill="none" stroke="#56d8d0" stroke-width="2" d="M323,-468C323,-468 247,-468 247,-468 241,-468 235,-462 235,-456 235,-456 235,-444 235,-444 235,-438 241,-432 247,-432 247,-432 323,-432 323,-432 329,-432 335,-438 335,-444 335,-444 335,-456 335,-456 335,-462 329,-468 323,-468"/>
<text text-anchor="middle" x="285" y="-447.5" font-family="sans" font-size="10.00">somatic_vep_tab</text>
</g>
<!-- 36&#45;&gt;35 -->
<g id="edge74" class="edge">
<title>36&#45;&gt;35</title>
<path fill="none" stroke="grey" stroke-width="2" d="M288.71,-431.7C290.36,-423.98 292.35,-414.71 294.19,-406.11"/>
<polygon fill="grey" stroke="grey" stroke-width="2" points="297.66,-406.62 296.33,-396.1 290.82,-405.15 297.66,-406.62"/>
</g>
<!-- 37&#45;&gt;36 -->
<g id="edge75" class="edge">
<title>37&#45;&gt;36</title>
<path fill="none" stroke="grey" stroke-width="2" d="M382.35,-575.92C372.21,-565.81 359.46,-552.56 349,-540 331.93,-519.52 314.38,-494.81 301.98,-476.62"/>
<polygon fill="grey" stroke="grey" stroke-width="2" points="304.84,-474.59 296.34,-468.27 299.04,-478.51 304.84,-474.59"/>
</g>
<!-- 39 -->
<g id="node40" class="node">
<title>39</title>
<path fill="none" stroke="#70d856" stroke-width="2" d="M445.5,-540C445.5,-540 370.5,-540 370.5,-540 364.5,-540 358.5,-534 358.5,-528 358.5,-528 358.5,-516 358.5,-516 358.5,-510 364.5,-504 370.5,-504 370.5,-504 445.5,-504 445.5,-504 451.5,-504 457.5,-510 457.5,-516 457.5,-516 457.5,-528 457.5,-528 457.5,-534 451.5,-540 445.5,-540"/>
<text text-anchor="middle" x="408" y="-519.5" font-family="sans" font-size="10.00">somatic_vep_vcf</text>
</g>
<!-- 37&#45;&gt;39 -->
<g id="edge78" class="edge">
<title>37&#45;&gt;39</title>
<path fill="none" stroke="grey" stroke-width="2" d="M401.98,-575.7C402.86,-567.98 403.92,-558.71 404.9,-550.11"/>
<polygon fill="grey" stroke="grey" stroke-width="2" points="408.39,-550.44 406.05,-540.1 401.43,-549.64 408.39,-550.44"/>
</g>
<!-- 38 -->
<g id="node39" class="node">
<title>38</title>
<path fill="none" stroke="#56d863" stroke-width="2" d="M466.5,-468C466.5,-468 365.5,-468 365.5,-468 359.5,-468 353.5,-462 353.5,-456 353.5,-456 353.5,-444 353.5,-444 353.5,-438 359.5,-432 365.5,-432 365.5,-432 466.5,-432 466.5,-432 472.5,-432 478.5,-438 478.5,-444 478.5,-444 478.5,-456 478.5,-456 478.5,-462 472.5,-468 466.5,-468"/>
<text text-anchor="middle" x="416" y="-447.5" font-family="sans" font-size="10.00">somatic_vep_vcf2maf</text>
</g>
<!-- 38&#45;&gt;35 -->
<g id="edge73" class="edge">
<title>38&#45;&gt;35</title>
<path fill="none" stroke="grey" stroke-width="2" d="M387.62,-431.88C372.46,-422.72 353.59,-411.34 337.26,-401.48"/>
<polygon fill="grey" stroke="grey" stroke-width="2" points="338.86,-398.36 328.49,-396.19 335.24,-404.35 338.86,-398.36"/>
</g>
<!-- 39&#45;&gt;38 -->
<g id="edge77" class="edge">
<title>39&#45;&gt;38</title>
<path fill="none" stroke="grey" stroke-width="2" d="M409.98,-503.7C410.86,-495.98 411.92,-486.71 412.9,-478.11"/>
<polygon fill="grey" stroke="grey" stroke-width="2" points="416.39,-478.44 414.05,-468.1 409.43,-477.64 416.39,-478.44"/>
</g>
<!-- 40 -->
<g id="node41" class="node">
<title>40</title>
<path fill="none" stroke="#d87556" stroke-width="2" d="M496,-180C496,-180 384,-180 384,-180 378,-180 372,-174 372,-168 372,-168 372,-156 372,-156 372,-150 378,-144 384,-144 384,-144 496,-144 496,-144 502,-144 508,-150 508,-156 508,-156 508,-168 508,-168 508,-174 502,-180 496,-180"/>
<text text-anchor="middle" x="440" y="-159.5" font-family="sans" font-size="10.00">somatic_maf_union_ann</text>
</g>
<!-- 40&#45;&gt;32 -->
<g id="edge68" class="edge">
<title>40&#45;&gt;32</title>
<path fill="none" stroke="grey" stroke-width="2" d="M428.13,-143.7C422.5,-135.47 415.65,-125.48 409.43,-116.42"/>
<polygon fill="grey" stroke="grey" stroke-width="2" points="412.27,-114.37 403.73,-108.1 406.5,-118.33 412.27,-114.37"/>
</g>
<!-- 41 -->
<g id="node42" class="node">
<title>41</title>
<path fill="none" stroke="#59d856" stroke-width="2" d="M369.5,-252C369.5,-252 230.5,-252 230.5,-252 224.5,-252 218.5,-246 218.5,-240 218.5,-240 218.5,-228 218.5,-228 218.5,-222 224.5,-216 230.5,-216 230.5,-216 369.5,-216 369.5,-216 375.5,-216 381.5,-222 381.5,-228 381.5,-228 381.5,-240 381.5,-240 381.5,-246 375.5,-252 369.5,-252"/>
<text text-anchor="middle" x="300" y="-231.5" font-family="sans" font-size="10.00">somatic_maf_civic_aggregate</text>
</g>
<!-- 41&#45;&gt;32 -->
<g id="edge66" class="edge">
<title>41&#45;&gt;32</title>
<path fill="none" stroke="grey" stroke-width="2" d="M311.1,-215.87C327.05,-191.24 356.6,-145.64 375.23,-116.88"/>
<polygon fill="grey" stroke="grey" stroke-width="2" points="378.36,-118.48 380.86,-108.19 372.49,-114.68 378.36,-118.48"/>
</g>
<!-- 41&#45;&gt;40 -->
<g id="edge80" class="edge">
<title>41&#45;&gt;40</title>
<path fill="none" stroke="grey" stroke-width="2" d="M334.25,-215.88C353.06,-206.47 376.58,-194.71 396.67,-184.67"/>
<polygon fill="grey" stroke="grey" stroke-width="2" points="398.24,-187.79 405.62,-180.19 395.11,-181.53 398.24,-187.79"/>
</g>
<!-- 42&#45;&gt;41 -->
<g id="edge81" class="edge">
<title>42&#45;&gt;41</title>
<path fill="none" stroke="grey" stroke-width="2" d="M300,-287.7C300,-279.98 300,-270.71 300,-262.11"/>
<polygon fill="grey" stroke="grey" stroke-width="2" points="303.5,-262.1 300,-252.1 296.5,-262.1 303.5,-262.1"/>
</g>
<!-- 43 -->
<g id="node44" class="node">
<title>43</title>
<path fill="none" stroke="#97d856" stroke-width="2" d="M564,-252C564,-252 412,-252 412,-252 406,-252 400,-246 400,-240 400,-240 400,-228 400,-228 400,-222 406,-216 412,-216 412,-216 564,-216 564,-216 570,-216 576,-222 576,-228 576,-228 576,-240 576,-240 576,-246 570,-252 564,-252"/>
<text text-anchor="middle" x="488" y="-231.5" font-family="sans" font-size="10.00">somatic_maf_oncokb_aggregate</text>
</g>
<!-- 43&#45;&gt;32 -->
<g id="edge69" class="edge">
<title>43&#45;&gt;32</title>
<path fill="none" stroke="grey" stroke-width="2" d="M502,-215.73C515.48,-196.87 531.8,-166.36 517,-144 506.84,-128.66 491.26,-117.75 474.51,-109.99"/>
<polygon fill="grey" stroke="grey" stroke-width="2" points="475.68,-106.68 465.1,-106 472.94,-113.13 475.68,-106.68"/>
</g>
<!-- 43&#45;&gt;40 -->
<g id="edge79" class="edge">
<title>43&#45;&gt;40</title>
<path fill="none" stroke="grey" stroke-width="2" d="M476.13,-215.7C470.5,-207.47 463.65,-197.48 457.43,-188.42"/>
<polygon fill="grey" stroke="grey" stroke-width="2" points="460.27,-186.37 451.73,-180.1 454.5,-190.33 460.27,-186.37"/>
</g>
<!-- 44&#45;&gt;43 -->
<g id="edge83" class="edge">
<title>44&#45;&gt;43</title>
<path fill="none" stroke="grey" stroke-width="2" d="M467.67,-287.7C470.71,-279.81 474.38,-270.3 477.76,-261.55"/>
<polygon fill="grey" stroke="grey" stroke-width="2" points="481.07,-262.69 481.4,-252.1 474.54,-260.17 481.07,-262.69"/>
</g>
<!-- 45 -->
<g id="node46" class="node">
<title>45</title>
<path fill="none" stroke="#56b1d8" stroke-width="2" d="M859.5,-180C859.5,-180 720.5,-180 720.5,-180 714.5,-180 708.5,-174 708.5,-168 708.5,-168 708.5,-156 708.5,-156 708.5,-150 714.5,-144 720.5,-144 720.5,-144 859.5,-144 859.5,-144 865.5,-144 871.5,-150 871.5,-156 871.5,-156 871.5,-168 871.5,-168 871.5,-174 865.5,-180 859.5,-180"/>
<text text-anchor="middle" x="790" y="-159.5" font-family="sans" font-size="10.00">somatic_cna_table_aggregate</text>
</g>
<!-- 45&#45;&gt;0 -->
<g id="edge16" class="edge">
<title>45&#45;&gt;0</title>
<path fill="none" stroke="grey" stroke-width="2" d="M795.84,-143.92C803.1,-124.65 817.01,-93.26 837,-72 851.21,-56.89 870.66,-44.5 887.57,-35.51"/>
<polygon fill="grey" stroke="grey" stroke-width="2" points="889.34,-38.54 896.65,-30.87 886.15,-32.3 889.34,-38.54"/>
</g>
<!-- 46 -->
<g id="node47" class="node">
<title>46</title>
<path fill="none" stroke="#56d87b" stroke-width="2" d="M1148.5,-468C1148.5,-468 1031.5,-468 1031.5,-468 1025.5,-468 1019.5,-462 1019.5,-456 1019.5,-456 1019.5,-444 1019.5,-444 1019.5,-438 1025.5,-432 1031.5,-432 1031.5,-432 1148.5,-432 1148.5,-432 1154.5,-432 1160.5,-438 1160.5,-444 1160.5,-444 1160.5,-456 1160.5,-456 1160.5,-462 1154.5,-468 1148.5,-468"/>
<text text-anchor="middle" x="1090" y="-447.5" font-family="sans" font-size="10.00">somatic_cnv_process_vcf</text>
</g>
<!-- 46&#45;&gt;45 -->
<g id="edge85" class="edge">
<title>46&#45;&gt;45</title>
<path fill="none" stroke="grey" stroke-width="2" d="M1048.59,-431.96C1029.14,-422.87 1006.26,-410.55 988,-396 908.99,-333.04 838.03,-234.92 806.81,-188.71"/>
<polygon fill="grey" stroke="grey" stroke-width="2" points="809.58,-186.55 801.11,-180.19 803.76,-190.45 809.58,-186.55"/>
</g>
<!-- 51 -->
<g id="node52" class="node">
<title>51</title>
<path fill="none" stroke="#afd856" stroke-width="2" d="M1171.5,-396C1171.5,-396 1008.5,-396 1008.5,-396 1002.5,-396 996.5,-390 996.5,-384 996.5,-384 996.5,-372 996.5,-372 996.5,-366 1002.5,-360 1008.5,-360 1008.5,-360 1171.5,-360 1171.5,-360 1177.5,-360 1183.5,-366 1183.5,-372 1183.5,-372 1183.5,-384 1183.5,-384 1183.5,-390 1177.5,-396 1171.5,-396"/>
<text text-anchor="middle" x="1090" y="-375.5" font-family="sans" font-size="10.00">somatic_cnv_gene_calls_unfiltered</text>
</g>
<!-- 46&#45;&gt;51 -->
<g id="edge92" class="edge">
<title>46&#45;&gt;51</title>
<path fill="none" stroke="grey" stroke-width="2" d="M1090,-431.7C1090,-423.98 1090,-414.71 1090,-406.11"/>
<polygon fill="grey" stroke="grey" stroke-width="2" points="1093.5,-406.1 1090,-396.1 1086.5,-406.1 1093.5,-406.1"/>
</g>
<!-- 59 -->
<g id="node60" class="node">
<title>59</title>
<path fill="none" stroke="#88d856" stroke-width="2" d="M1411.5,-108C1411.5,-108 1276.5,-108 1276.5,-108 1270.5,-108 1264.5,-102 1264.5,-96 1264.5,-96 1264.5,-84 1264.5,-84 1264.5,-78 1270.5,-72 1276.5,-72 1276.5,-72 1411.5,-72 1411.5,-72 1417.5,-72 1423.5,-78 1423.5,-84 1423.5,-84 1423.5,-96 1423.5,-96 1423.5,-102 1417.5,-108 1411.5,-108"/>
<text text-anchor="middle" x="1344" y="-87.5" font-family="sans" font-size="10.00">somatic_cna_sum_aggregate</text>
</g>
<!-- 46&#45;&gt;59 -->
<g id="edge101" class="edge">
<title>46&#45;&gt;59</title>
<path fill="none" stroke="grey" stroke-width="2" d="M1126.99,-431.94C1190.58,-402.26 1314.99,-342.51 1327,-324 1368.46,-260.07 1358.22,-164.49 1349.84,-118.14"/>
<polygon fill="grey" stroke="grey" stroke-width="2" points="1353.26,-117.41 1347.94,-108.25 1346.39,-118.73 1353.26,-117.41"/>
</g>
<!-- 60 -->
<g id="node61" class="node">
<title>60</title>
<path fill="none" stroke="#d8d356" stroke-width="2" d="M1449,-396C1449,-396 1295,-396 1295,-396 1289,-396 1283,-390 1283,-384 1283,-384 1283,-372 1283,-372 1283,-366 1289,-360 1295,-360 1295,-360 1449,-360 1449,-360 1455,-360 1461,-366 1461,-372 1461,-372 1461,-384 1461,-384 1461,-390 1455,-396 1449,-396"/>
<text text-anchor="middle" x="1372" y="-375.5" font-family="sans" font-size="10.00">somatic_cna_chr_arm_aggregate</text>
</g>
<!-- 46&#45;&gt;60 -->
<g id="edge102" class="edge">
<title>46&#45;&gt;60</title>
<path fill="none" stroke="grey" stroke-width="2" d="M1158.62,-431.97C1199.31,-421.87 1251.03,-409.03 1293.36,-398.52"/>
<polygon fill="grey" stroke="grey" stroke-width="2" points="1294.21,-401.92 1303.07,-396.11 1292.52,-395.12 1294.21,-401.92"/>
</g>
<!-- 47 -->
<g id="node48" class="node">
<title>47</title>
<path fill="none" stroke="#61d856" stroke-width="2" d="M808,-540C808,-540 644,-540 644,-540 638,-540 632,-534 632,-528 632,-528 632,-516 632,-516 632,-510 638,-504 644,-504 644,-504 808,-504 808,-504 814,-504 820,-510 820,-516 820,-516 820,-528 820,-528 820,-534 814,-540 808,-540"/>
<text text-anchor="middle" x="726" y="-519.5" font-family="sans" font-size="10.00">somatic_cnv_facets_tumor_normal</text>
</g>
<!-- 47&#45;&gt;46 -->
<g id="edge87" class="edge">
<title>47&#45;&gt;46</title>
<path fill="none" stroke="grey" stroke-width="2" d="M814.58,-503.97C873.94,-492.55 951.48,-477.64 1009.16,-466.55"/>
<polygon fill="grey" stroke="grey" stroke-width="2" points="1010.17,-469.92 1019.33,-464.59 1008.85,-463.04 1010.17,-469.92"/>
</g>
<!-- 63 -->
<g id="node64" class="node">
<title>63</title>
<path fill="none" stroke="#569ad8" stroke-width="2" d="M713,-108C713,-108 603,-108 603,-108 597,-108 591,-102 591,-96 591,-96 591,-84 591,-84 591,-78 597,-72 603,-72 603,-72 713,-72 713,-72 719,-72 725,-78 725,-84 725,-84 725,-96 725,-96 725,-102 719,-108 713,-108"/>
<text text-anchor="middle" x="658" y="-87.5" font-family="sans" font-size="10.00">somatic_ppy_aggregate</text>
</g>
<!-- 47&#45;&gt;63 -->
<g id="edge106" class="edge">
<title>47&#45;&gt;63</title>
<path fill="none" stroke="grey" stroke-width="2" d="M707.36,-503.69C682.61,-478.72 642,-429.98 642,-379 642,-379 642,-379 642,-233 642,-192.96 648.36,-146.97 653.06,-118.45"/>
<polygon fill="grey" stroke="grey" stroke-width="2" points="656.54,-118.86 654.76,-108.42 649.64,-117.69 656.54,-118.86"/>
</g>
<!-- 48&#45;&gt;47 -->
<g id="edge88" class="edge">
<title>48&#45;&gt;47</title>
<path fill="none" stroke="grey" stroke-width="2" d="M745.83,-1439.98C742.62,-1413.37 737,-1360.25 737,-1315 737,-1315 737,-1315 737,-665 737,-624.88 732.58,-578.57 729.34,-550.03"/>
<polygon fill="grey" stroke="grey" stroke-width="2" points="732.81,-549.54 728.17,-540.02 725.86,-550.36 732.81,-549.54"/>
</g>
<!-- 49 -->
<g id="node50" class="node">
<title>49</title>
<path fill="none" stroke="#bed856" stroke-width="2" d="M1105,-540C1105,-540 1075,-540 1075,-540 1069,-540 1063,-534 1063,-528 1063,-528 1063,-516 1063,-516 1063,-510 1069,-504 1075,-504 1075,-504 1105,-504 1105,-504 1111,-504 1117,-510 1117,-516 1117,-516 1117,-528 1117,-528 1117,-534 1111,-540 1105,-540"/>
<text text-anchor="middle" x="1090" y="-519.5" font-family="sans" font-size="10.00">setup_r</text>
</g>
<!-- 49&#45;&gt;46 -->
<g id="edge86" class="edge">
<title>49&#45;&gt;46</title>
<path fill="none" stroke="grey" stroke-width="2" d="M1090,-503.7C1090,-495.98 1090,-486.71 1090,-478.11"/>
<polygon fill="grey" stroke="grey" stroke-width="2" points="1093.5,-478.1 1090,-468.1 1086.5,-478.1 1093.5,-478.1"/>
</g>
<!-- 50 -->
<g id="node51" class="node">
<title>50</title>
<path fill="none" stroke="#d8bc56" stroke-width="2" d="M1306,-324C1306,-324 1164,-324 1164,-324 1158,-324 1152,-318 1152,-312 1152,-312 1152,-300 1152,-300 1152,-294 1158,-288 1164,-288 1164,-288 1306,-288 1306,-288 1312,-288 1318,-294 1318,-300 1318,-300 1318,-312 1318,-312 1318,-318 1312,-324 1306,-324"/>
<text text-anchor="middle" x="1235" y="-303.5" font-family="sans" font-size="10.00">somatic_cna_filters_aggregate</text>
</g>
<!-- 50&#45;&gt;0 -->
<g id="edge6" class="edge">
<title>50&#45;&gt;0</title>
<path fill="none" stroke="grey" stroke-width="2" d="M1243.91,-287.79C1258.12,-258.03 1282.77,-195.2 1267,-144 1255.61,-107.01 1250.47,-93.08 1218,-72 1176.11,-44.8 1030.82,-28.53 961.44,-22.14"/>
<polygon fill="grey" stroke="grey" stroke-width="2" points="961.66,-18.64 951.38,-21.23 961.03,-25.61 961.66,-18.64"/>
</g>
<!-- 51&#45;&gt;50 -->
<g id="edge91" class="edge">
<title>51&#45;&gt;50</title>
<path fill="none" stroke="grey" stroke-width="2" d="M1125.47,-359.88C1145.12,-350.39 1169.72,-338.51 1190.63,-328.42"/>
<polygon fill="grey" stroke="grey" stroke-width="2" points="1192.16,-331.57 1199.64,-324.07 1189.12,-325.26 1192.16,-331.57"/>
</g>
<!-- 53 -->
<g id="node54" class="node">
<title>53</title>
<path fill="none" stroke="#567bd8" stroke-width="2" d="M1121.5,-324C1121.5,-324 970.5,-324 970.5,-324 964.5,-324 958.5,-318 958.5,-312 958.5,-312 958.5,-300 958.5,-300 958.5,-294 964.5,-288 970.5,-288 970.5,-288 1121.5,-288 1121.5,-288 1127.5,-288 1133.5,-294 1133.5,-300 1133.5,-300 1133.5,-312 1133.5,-312 1133.5,-318 1127.5,-324 1121.5,-324"/>
<text text-anchor="middle" x="1046" y="-303.5" font-family="sans" font-size="10.00">somatic_cnv_gene_calls_filtered</text>
</g>
<!-- 51&#45;&gt;53 -->
<g id="edge94" class="edge">
<title>51&#45;&gt;53</title>
<path fill="none" stroke="grey" stroke-width="2" d="M1079.12,-359.7C1074.01,-351.56 1067.8,-341.69 1062.16,-332.7"/>
<polygon fill="grey" stroke="grey" stroke-width="2" points="1065.04,-330.71 1056.75,-324.1 1059.11,-334.43 1065.04,-330.71"/>
</g>
<!-- 52 -->
<g id="node53" class="node">
<title>52</title>
<path fill="none" stroke="#ced856" stroke-width="2" d="M1196.5,-108C1196.5,-108 1059.5,-108 1059.5,-108 1053.5,-108 1047.5,-102 1047.5,-96 1047.5,-96 1047.5,-84 1047.5,-84 1047.5,-78 1053.5,-72 1059.5,-72 1059.5,-72 1196.5,-72 1196.5,-72 1202.5,-72 1208.5,-78 1208.5,-84 1208.5,-84 1208.5,-96 1208.5,-96 1208.5,-102 1202.5,-108 1196.5,-108"/>
<text text-anchor="middle" x="1128" y="-87.5" font-family="sans" font-size="10.00">somatic_cna_calls_aggregate</text>
</g>
<!-- 52&#45;&gt;0 -->
<g id="edge9" class="edge">
<title>52&#45;&gt;0</title>
<path fill="none" stroke="grey" stroke-width="2" d="M1078.36,-71.97C1042.12,-59.53 993.8,-42.95 960.94,-31.67"/>
<polygon fill="grey" stroke="grey" stroke-width="2" points="961.86,-28.29 951.27,-28.36 959.59,-34.91 961.86,-28.29"/>
</g>
<!-- 53&#45;&gt;52 -->
<g id="edge93" class="edge">
<title>53&#45;&gt;52</title>
<path fill="none" stroke="grey" stroke-width="2" d="M1133.69,-289.51C1160.27,-281.61 1188.18,-269.75 1210,-252 1238.57,-228.76 1241.57,-215.6 1251,-180 1255.1,-164.53 1259.79,-157.37 1251,-144 1241.95,-130.25 1228.5,-120.05 1213.77,-112.49"/>
<polygon fill="grey" stroke="grey" stroke-width="2" points="1215,-109.2 1204.46,-108.11 1212.02,-115.53 1215,-109.2"/>
</g>
<!-- 55 -->
<g id="node56" class="node">
<title>55</title>
<path fill="none" stroke="#56d86b" stroke-width="2" d="M1050.5,-252C1050.5,-252 955.5,-252 955.5,-252 949.5,-252 943.5,-246 943.5,-240 943.5,-240 943.5,-228 943.5,-228 943.5,-222 949.5,-216 955.5,-216 955.5,-216 1050.5,-216 1050.5,-216 1056.5,-216 1062.5,-222 1062.5,-228 1062.5,-228 1062.5,-240 1062.5,-240 1062.5,-246 1056.5,-252 1050.5,-252"/>
<text text-anchor="middle" x="1003" y="-231.5" font-family="sans" font-size="10.00">somatic_cna_oncokb</text>
</g>
<!-- 53&#45;&gt;55 -->
<g id="edge96" class="edge">
<title>53&#45;&gt;55</title>
<path fill="none" stroke="grey" stroke-width="2" d="M1035.37,-287.7C1030.37,-279.56 1024.31,-269.69 1018.79,-260.7"/>
<polygon fill="grey" stroke="grey" stroke-width="2" points="1021.72,-258.79 1013.51,-252.1 1015.76,-262.46 1021.72,-258.79"/>
</g>
<!-- 57 -->
<g id="node58" class="node">
<title>57</title>
<path fill="none" stroke="#56d8c1" stroke-width="2" d="M1189,-252C1189,-252 1107,-252 1107,-252 1101,-252 1095,-246 1095,-240 1095,-240 1095,-228 1095,-228 1095,-222 1101,-216 1107,-216 1107,-216 1189,-216 1189,-216 1195,-216 1201,-222 1201,-228 1201,-228 1201,-240 1201,-240 1201,-246 1195,-252 1189,-252"/>
<text text-anchor="middle" x="1148" y="-231.5" font-family="sans" font-size="10.00">somatic_cna_civic</text>
</g>
<!-- 53&#45;&gt;57 -->
<g id="edge98" class="edge">
<title>53&#45;&gt;57</title>
<path fill="none" stroke="grey" stroke-width="2" d="M1070.95,-287.88C1084.04,-278.89 1100.26,-267.76 1114.44,-258.03"/>
<polygon fill="grey" stroke="grey" stroke-width="2" points="1116.69,-260.73 1122.95,-252.19 1112.73,-254.96 1116.69,-260.73"/>
</g>
<!-- 54 -->
<g id="node55" class="node">
<title>54</title>
<path fill="none" stroke="#d88d56" stroke-width="2" d="M1050.5,-180C1050.5,-180 901.5,-180 901.5,-180 895.5,-180 889.5,-174 889.5,-168 889.5,-168 889.5,-156 889.5,-156 889.5,-150 895.5,-144 901.5,-144 901.5,-144 1050.5,-144 1050.5,-144 1056.5,-144 1062.5,-150 1062.5,-156 1062.5,-156 1062.5,-168 1062.5,-168 1062.5,-174 1056.5,-180 1050.5,-180"/>
<text text-anchor="middle" x="976" y="-159.5" font-family="sans" font-size="10.00">somatic_cna_oncokb_aggregate</text>
</g>
<!-- 54&#45;&gt;0 -->
<g id="edge3" class="edge">
<title>54&#45;&gt;0</title>
<path fill="none" stroke="grey" stroke-width="2" d="M895.17,-143.98C876.66,-136.14 859.16,-124.7 848,-108 839.11,-94.7 840.6,-86.19 848,-72 856.5,-55.7 872.56,-43.39 887.73,-34.76"/>
<polygon fill="grey" stroke="grey" stroke-width="2" points="889.79,-37.63 896.99,-29.86 886.51,-31.44 889.79,-37.63"/>
</g>
<!-- 58 -->
<g id="node59" class="node">
<title>58</title>
<path fill="none" stroke="#d8c356" stroke-width="2" d="M979,-108C979,-108 869,-108 869,-108 863,-108 857,-102 857,-96 857,-96 857,-84 857,-84 857,-78 863,-72 869,-72 869,-72 979,-72 979,-72 985,-72 991,-78 991,-84 991,-84 991,-96 991,-96 991,-102 985,-108 979,-108"/>
<text text-anchor="middle" x="924" y="-87.5" font-family="sans" font-size="10.00">somatic_cna_union_ann</text>
</g>
<!-- 54&#45;&gt;58 -->
<g id="edge100" class="edge">
<title>54&#45;&gt;58</title>
<path fill="none" stroke="grey" stroke-width="2" d="M963.15,-143.7C956.97,-135.39 949.46,-125.28 942.68,-116.14"/>
<polygon fill="grey" stroke="grey" stroke-width="2" points="945.48,-114.04 936.71,-108.1 939.86,-118.22 945.48,-114.04"/>
</g>
<!-- 55&#45;&gt;54 -->
<g id="edge95" class="edge">
<title>55&#45;&gt;54</title>
<path fill="none" stroke="grey" stroke-width="2" d="M996.33,-215.7C993.29,-207.81 989.62,-198.3 986.24,-189.55"/>
<polygon fill="grey" stroke="grey" stroke-width="2" points="989.46,-188.17 982.6,-180.1 982.93,-190.69 989.46,-188.17"/>
</g>
<!-- 56 -->
<g id="node57" class="node">
<title>56</title>
<path fill="none" stroke="#d85e56" stroke-width="2" d="M1229.5,-180C1229.5,-180 1092.5,-180 1092.5,-180 1086.5,-180 1080.5,-174 1080.5,-168 1080.5,-168 1080.5,-156 1080.5,-156 1080.5,-150 1086.5,-144 1092.5,-144 1092.5,-144 1229.5,-144 1229.5,-144 1235.5,-144 1241.5,-150 1241.5,-156 1241.5,-156 1241.5,-168 1241.5,-168 1241.5,-174 1235.5,-180 1229.5,-180"/>
<text text-anchor="middle" x="1161" y="-159.5" font-family="sans" font-size="10.00">somatic_cna_civic_aggregate</text>
</g>
<!-- 56&#45;&gt;0 -->
<g id="edge2" class="edge">
<title>56&#45;&gt;0</title>
<path fill="none" stroke="grey" stroke-width="2" d="M1111.58,-143.91C1088.6,-134.88 1061.44,-122.63 1039,-108 1019.24,-95.12 1018.38,-86.78 1000,-72 986.94,-61.5 971.92,-50.77 958.7,-41.73"/>
<polygon fill="grey" stroke="grey" stroke-width="2" points="960.56,-38.76 950.32,-36.06 956.64,-44.56 960.56,-38.76"/>
</g>
<!-- 56&#45;&gt;58 -->
<g id="edge99" class="edge">
<title>56&#45;&gt;58</title>
<path fill="none" stroke="grey" stroke-width="2" d="M1103.33,-143.97C1069.64,-134.01 1026.95,-121.41 991.67,-110.99"/>
<polygon fill="grey" stroke="grey" stroke-width="2" points="992.51,-107.59 981.93,-108.11 990.53,-114.3 992.51,-107.59"/>
</g>
<!-- 57&#45;&gt;56 -->
<g id="edge97" class="edge">
<title>57&#45;&gt;56</title>
<path fill="none" stroke="grey" stroke-width="2" d="M1151.21,-215.7C1152.65,-207.98 1154.37,-198.71 1155.96,-190.11"/>
<polygon fill="grey" stroke="grey" stroke-width="2" points="1159.44,-190.58 1157.82,-180.1 1152.56,-189.3 1159.44,-190.58"/>
</g>
<!-- 58&#45;&gt;0 -->
<g id="edge5" class="edge">
<title>58&#45;&gt;0</title>
<path fill="none" stroke="grey" stroke-width="2" d="M924,-71.7C924,-63.98 924,-54.71 924,-46.11"/>
<polygon fill="grey" stroke="grey" stroke-width="2" points="927.5,-46.1 924,-36.1 920.5,-46.1 927.5,-46.1"/>
</g>
<!-- 59&#45;&gt;0 -->
<g id="edge11" class="edge">
<title>59&#45;&gt;0</title>
<path fill="none" stroke="grey" stroke-width="2" d="M1264.37,-74.34C1259.85,-73.54 1255.37,-72.75 1251,-72 1146.21,-53.93 1022.21,-34.32 961.41,-24.81"/>
<polygon fill="grey" stroke="grey" stroke-width="2" points="961.58,-21.3 951.16,-23.21 960.5,-28.21 961.58,-21.3"/>
</g>
<!-- 60&#45;&gt;0 -->
<g id="edge7" class="edge">
<title>60&#45;&gt;0</title>
<path fill="none" stroke="grey" stroke-width="2" d="M1389.14,-359.89C1412.38,-334.8 1451,-285.5 1451,-235 1451,-235 1451,-235 1451,-161 1451,-120.64 1462.87,-99.14 1433,-72 1398.2,-40.39 1072.96,-24.82 961.37,-20.37"/>
<polygon fill="grey" stroke="grey" stroke-width="2" points="961.38,-16.87 951.25,-19.98 961.11,-23.87 961.38,-16.87"/>
</g>
<!-- 61 -->
<g id="node62" class="node">
<title>61</title>
<path fill="none" stroke="#5682d8" stroke-width="2" d="M927,-1188C927,-1188 817,-1188 817,-1188 811,-1188 805,-1182 805,-1176 805,-1176 805,-1164 805,-1164 805,-1158 811,-1152 817,-1152 817,-1152 927,-1152 927,-1152 933,-1152 939,-1158 939,-1164 939,-1164 939,-1176 939,-1176 939,-1182 933,-1188 927,-1188"/>
<text text-anchor="middle" x="872" y="-1167.5" font-family="sans" font-size="10.00">somatic_msi_aggregate</text>
</g>
<!-- 61&#45;&gt;0 -->
<g id="edge20" class="edge">
<title>61&#45;&gt;0</title>
<path fill="none" stroke="grey" stroke-width="2" d="M867.14,-1151.67C860.13,-1125.08 848,-1072.5 848,-1027 848,-1027 848,-1027 848,-593 848,-382.74 599.4,-329.17 699,-144 718.75,-107.28 829.27,-57.67 887.72,-33.48"/>
<polygon fill="grey" stroke="grey" stroke-width="2" points="889.06,-36.72 896.98,-29.68 886.4,-30.24 889.06,-36.72"/>
</g>
<!-- 62&#45;&gt;61 -->
<g id="edge103" class="edge">
<title>62&#45;&gt;61</title>
<path fill="none" stroke="grey" stroke-width="2" d="M936.89,-1439.97C925.36,-1392.19 892.66,-1256.62 878.58,-1198.27"/>
<polygon fill="grey" stroke="grey" stroke-width="2" points="881.92,-1197.21 876.18,-1188.31 875.12,-1198.85 881.92,-1197.21"/>
</g>
<!-- 63&#45;&gt;0 -->
<g id="edge18" class="edge">
<title>63&#45;&gt;0</title>
<path fill="none" stroke="grey" stroke-width="2" d="M722.73,-71.97C774.3,-58.39 844.66,-39.88 887.07,-28.72"/>
<polygon fill="grey" stroke="grey" stroke-width="2" points="888.19,-32.04 896.97,-26.11 886.41,-25.27 888.19,-32.04"/>
</g>
</g>
</svg>
